<mxfile host="app.diagrams.net" agent="Mozilla/5.0 (Macintosh; Intel Mac OS X 10_15_7) AppleWebKit/537.36 (KHTML, like Gecko) Chrome/131.0.0.0 Safari/537.36" version="26.0.6">
  <diagram name="Page-1" id="9ZS23o5Lgt0_xyfYFd_S">
    <mxGraphModel dx="1434" dy="785" grid="1" gridSize="10" guides="1" tooltips="1" connect="1" arrows="1" fold="1" page="1" pageScale="1" pageWidth="1169" pageHeight="827" math="0" shadow="0">
      <root>
        <mxCell id="0" />
        <mxCell id="1" parent="0" />
        <mxCell id="pvLlDoTduh4TeLy9FZD7-2" value="" style="shape=cylinder3;whiteSpace=wrap;html=1;boundedLbl=1;backgroundOutline=1;size=15;" parent="1" vertex="1">
          <mxGeometry x="1020" y="200" width="60" height="80" as="geometry" />
        </mxCell>
        <mxCell id="pvLlDoTduh4TeLy9FZD7-3" value="«interface»&lt;br&gt;&lt;b&gt;dbInterface&lt;/b&gt;" style="html=1;whiteSpace=wrap;" parent="1" vertex="1">
          <mxGeometry x="630" y="215" width="110" height="50" as="geometry" />
        </mxCell>
        <mxCell id="pvLlDoTduh4TeLy9FZD7-7" style="edgeStyle=orthogonalEdgeStyle;rounded=0;orthogonalLoop=1;jettySize=auto;html=1;" parent="1" source="pvLlDoTduh4TeLy9FZD7-4" target="pvLlDoTduh4TeLy9FZD7-2" edge="1">
          <mxGeometry relative="1" as="geometry" />
        </mxCell>
        <mxCell id="pvLlDoTduh4TeLy9FZD7-8" style="edgeStyle=orthogonalEdgeStyle;rounded=0;orthogonalLoop=1;jettySize=auto;html=1;" parent="1" source="pvLlDoTduh4TeLy9FZD7-4" target="pvLlDoTduh4TeLy9FZD7-3" edge="1">
          <mxGeometry relative="1" as="geometry" />
        </mxCell>
        <mxCell id="pvLlDoTduh4TeLy9FZD7-4" value="dbInteractor" style="html=1;whiteSpace=wrap;" parent="1" vertex="1">
          <mxGeometry x="810" y="215" width="110" height="50" as="geometry" />
        </mxCell>
        <mxCell id="pvLlDoTduh4TeLy9FZD7-10" value="writeData&lt;div&gt;fetchData&lt;/div&gt;" style="shape=note;strokeWidth=2;fontSize=14;size=20;whiteSpace=wrap;html=1;fillColor=#fff2cc;strokeColor=#d6b656;fontColor=#666600;" parent="1" vertex="1">
          <mxGeometry x="631" y="270" width="110" height="50" as="geometry" />
        </mxCell>
        <mxCell id="pvLlDoTduh4TeLy9FZD7-12" value="«interface»&lt;br&gt;&lt;b&gt;webService&lt;/b&gt;" style="html=1;whiteSpace=wrap;" parent="1" vertex="1">
          <mxGeometry x="630" y="70" width="110" height="50" as="geometry" />
        </mxCell>
        <mxCell id="pvLlDoTduh4TeLy9FZD7-16" style="edgeStyle=orthogonalEdgeStyle;rounded=0;orthogonalLoop=1;jettySize=auto;html=1;" parent="1" source="pvLlDoTduh4TeLy9FZD7-15" target="pvLlDoTduh4TeLy9FZD7-12" edge="1">
          <mxGeometry relative="1" as="geometry" />
        </mxCell>
        <mxCell id="pvLlDoTduh4TeLy9FZD7-15" value="restService" style="html=1;whiteSpace=wrap;" parent="1" vertex="1">
          <mxGeometry x="810" y="70" width="110" height="50" as="geometry" />
        </mxCell>
        <mxCell id="pvLlDoTduh4TeLy9FZD7-17" value="CRUD" style="shape=note;strokeWidth=2;fontSize=14;size=20;whiteSpace=wrap;html=1;fillColor=#fff2cc;strokeColor=#d6b656;fontColor=#666600;" parent="1" vertex="1">
          <mxGeometry x="631" y="125" width="110" height="50" as="geometry" />
        </mxCell>
        <mxCell id="wnh7JDFZamDMv24RM5yd-7" style="edgeStyle=orthogonalEdgeStyle;rounded=0;orthogonalLoop=1;jettySize=auto;html=1;entryX=0;entryY=0.5;entryDx=0;entryDy=0;" edge="1" parent="1" source="wnh7JDFZamDMv24RM5yd-2" target="pvLlDoTduh4TeLy9FZD7-3">
          <mxGeometry relative="1" as="geometry" />
        </mxCell>
        <mxCell id="wnh7JDFZamDMv24RM5yd-2" value="dbHandler" style="swimlane;fontStyle=1;align=center;verticalAlign=middle;childLayout=stackLayout;horizontal=1;startSize=29;horizontalStack=0;resizeParent=1;resizeParentMax=0;resizeLast=0;collapsible=0;marginBottom=0;html=1;whiteSpace=wrap;" vertex="1" parent="1">
          <mxGeometry x="400" y="213" width="140" height="54" as="geometry" />
        </mxCell>
        <mxCell id="wnh7JDFZamDMv24RM5yd-3" value="&amp;lt;&amp;lt;dbInterface&amp;gt;&amp;gt;" style="text;html=1;strokeColor=none;fillColor=none;align=center;verticalAlign=middle;spacingLeft=4;spacingRight=4;overflow=hidden;rotatable=0;points=[[0,0.5],[1,0.5]];portConstraint=eastwest;whiteSpace=wrap;" vertex="1" parent="wnh7JDFZamDMv24RM5yd-2">
          <mxGeometry y="29" width="140" height="25" as="geometry" />
        </mxCell>
        <mxCell id="wnh7JDFZamDMv24RM5yd-8" value="Driver" style="swimlane;fontStyle=1;align=center;verticalAlign=middle;childLayout=stackLayout;horizontal=1;startSize=29;horizontalStack=0;resizeParent=1;resizeParentMax=0;resizeLast=0;collapsible=0;marginBottom=0;html=1;whiteSpace=wrap;" vertex="1" parent="1">
          <mxGeometry x="30" y="360" width="140" height="54" as="geometry" />
        </mxCell>
        <mxCell id="wnh7JDFZamDMv24RM5yd-9" value="&amp;lt;&amp;lt;&amp;gt;&amp;gt;" style="text;html=1;strokeColor=none;fillColor=none;align=center;verticalAlign=middle;spacingLeft=4;spacingRight=4;overflow=hidden;rotatable=0;points=[[0,0.5],[1,0.5]];portConstraint=eastwest;whiteSpace=wrap;" vertex="1" parent="wnh7JDFZamDMv24RM5yd-8">
          <mxGeometry y="29" width="140" height="25" as="geometry" />
        </mxCell>
        <mxCell id="wnh7JDFZamDMv24RM5yd-11" value="Driver" style="swimlane;fontStyle=1;align=center;verticalAlign=middle;childLayout=stackLayout;horizontal=1;startSize=29;horizontalStack=0;resizeParent=1;resizeParentMax=0;resizeLast=0;collapsible=0;marginBottom=0;html=1;whiteSpace=wrap;" vertex="1" parent="1">
          <mxGeometry x="30" y="300" width="140" height="54" as="geometry" />
        </mxCell>
        <mxCell id="wnh7JDFZamDMv24RM5yd-12" value="&amp;lt;&amp;lt;&amp;gt;&amp;gt;" style="text;html=1;strokeColor=none;fillColor=none;align=center;verticalAlign=middle;spacingLeft=4;spacingRight=4;overflow=hidden;rotatable=0;points=[[0,0.5],[1,0.5]];portConstraint=eastwest;whiteSpace=wrap;" vertex="1" parent="wnh7JDFZamDMv24RM5yd-11">
          <mxGeometry y="29" width="140" height="25" as="geometry" />
        </mxCell>
        <mxCell id="wnh7JDFZamDMv24RM5yd-15" style="edgeStyle=orthogonalEdgeStyle;rounded=0;orthogonalLoop=1;jettySize=auto;html=1;" edge="1" parent="1" source="wnh7JDFZamDMv24RM5yd-13" target="wnh7JDFZamDMv24RM5yd-14">
          <mxGeometry relative="1" as="geometry" />
        </mxCell>
        <mxCell id="wnh7JDFZamDMv24RM5yd-13" value="Web Scraper" style="rounded=1;whiteSpace=wrap;html=1;" vertex="1" parent="1">
          <mxGeometry x="800" y="716" width="120" height="60" as="geometry" />
        </mxCell>
        <mxCell id="wnh7JDFZamDMv24RM5yd-14" value="" style="sketch=0;outlineConnect=0;fontColor=#232F3E;gradientColor=none;fillColor=#232F3D;strokeColor=none;dashed=0;verticalLabelPosition=bottom;verticalAlign=top;align=center;html=1;fontSize=12;fontStyle=0;aspect=fixed;pointerEvents=1;shape=mxgraph.aws4.globe;" vertex="1" parent="1">
          <mxGeometry x="1020" y="716" width="59" height="59" as="geometry" />
        </mxCell>
        <mxCell id="wnh7JDFZamDMv24RM5yd-18" style="edgeStyle=orthogonalEdgeStyle;rounded=0;orthogonalLoop=1;jettySize=auto;html=1;" edge="1" parent="1" source="wnh7JDFZamDMv24RM5yd-16" target="wnh7JDFZamDMv24RM5yd-13">
          <mxGeometry relative="1" as="geometry" />
        </mxCell>
        <mxCell id="wnh7JDFZamDMv24RM5yd-22" style="edgeStyle=orthogonalEdgeStyle;rounded=0;orthogonalLoop=1;jettySize=auto;html=1;entryX=0;entryY=0.5;entryDx=0;entryDy=0;" edge="1" parent="1" source="wnh7JDFZamDMv24RM5yd-16" target="wnh7JDFZamDMv24RM5yd-19">
          <mxGeometry relative="1" as="geometry">
            <Array as="points">
              <mxPoint x="630" y="640" />
            </Array>
          </mxGeometry>
        </mxCell>
        <mxCell id="wnh7JDFZamDMv24RM5yd-16" value="Data Cleaner" style="rounded=1;whiteSpace=wrap;html=1;" vertex="1" parent="1">
          <mxGeometry x="570" y="716" width="120" height="60" as="geometry" />
        </mxCell>
        <mxCell id="wnh7JDFZamDMv24RM5yd-21" style="edgeStyle=orthogonalEdgeStyle;rounded=0;orthogonalLoop=1;jettySize=auto;html=1;" edge="1" parent="1" source="wnh7JDFZamDMv24RM5yd-19" target="wnh7JDFZamDMv24RM5yd-20">
          <mxGeometry relative="1" as="geometry" />
        </mxCell>
        <mxCell id="wnh7JDFZamDMv24RM5yd-19" value="Data Storage / Access" style="rounded=1;whiteSpace=wrap;html=1;" vertex="1" parent="1">
          <mxGeometry x="800" y="610" width="120" height="60" as="geometry" />
        </mxCell>
        <mxCell id="wnh7JDFZamDMv24RM5yd-20" value="" style="shape=cylinder3;whiteSpace=wrap;html=1;boundedLbl=1;backgroundOutline=1;size=15;" vertex="1" parent="1">
          <mxGeometry x="1020" y="600" width="60" height="80" as="geometry" />
        </mxCell>
        <mxCell id="wnh7JDFZamDMv24RM5yd-24" style="edgeStyle=orthogonalEdgeStyle;rounded=0;orthogonalLoop=1;jettySize=auto;html=1;entryX=0.5;entryY=0;entryDx=0;entryDy=0;" edge="1" parent="1" source="wnh7JDFZamDMv24RM5yd-23" target="wnh7JDFZamDMv24RM5yd-19">
          <mxGeometry relative="1" as="geometry" />
        </mxCell>
        <mxCell id="wnh7JDFZamDMv24RM5yd-23" value="Data Retrieval / Filtering" style="rounded=1;whiteSpace=wrap;html=1;" vertex="1" parent="1">
          <mxGeometry x="570" y="500" width="120" height="60" as="geometry" />
        </mxCell>
        <mxCell id="wnh7JDFZamDMv24RM5yd-26" style="edgeStyle=orthogonalEdgeStyle;rounded=0;orthogonalLoop=1;jettySize=auto;html=1;" edge="1" parent="1" source="wnh7JDFZamDMv24RM5yd-25" target="wnh7JDFZamDMv24RM5yd-23">
          <mxGeometry relative="1" as="geometry" />
        </mxCell>
        <mxCell id="wnh7JDFZamDMv24RM5yd-25" value="Backend" style="rounded=1;whiteSpace=wrap;html=1;" vertex="1" parent="1">
          <mxGeometry x="280" y="500" width="120" height="60" as="geometry" />
        </mxCell>
      </root>
    </mxGraphModel>
  </diagram>
</mxfile>
